<svg xmlns="http://www.w3.org/2000/svg" width="16" height="16" viewBox="0 0 16 16">
    <g fill="none" fill-rule="evenodd" stroke-linecap="round" stroke-linejoin="round">
        <g stroke="#FFF">
            <g>
                <g>
                    <g>
                        <g>
                            <g>
                                <path d="M10 14h.593c1.146 0 2.074-.688 2.074-1.934v-1.4" transform="translate(-135 -5469) translate(0 5027) translate(135 405) translate(0 35) translate(0 2) translate(.667 .667)"/>
                                <path d="M12 5.333c1.298 0 2.408.956 2.628 2.264.22 1.309-.515 2.589-1.74 3.03-.203.074-.43.042-.606-.085-.177-.128-.282-.335-.282-.556V5.333zM2.667 5.333c-1.299 0-2.409.956-2.628 2.264-.22 1.309.515 2.589 1.739 3.03.204.074.43.042.607-.085.176-.128.282-.335.282-.556V5.333zM12 6V4.737C12 2.12 9.91 0 7.333 0S2.667 2.12 2.667 4.737V6M7.273 13.333h2.424c.167 0 .303.15.303.334v.666c0 .184-.136.334-.303.334H7.273c-.335 0-.606-.299-.606-.667h0c0-.368.271-.667.606-.667z" transform="translate(-135 -5469) translate(0 5027) translate(135 405) translate(0 35) translate(0 2) translate(.667 .667)"/>
                            </g>
                        </g>
                    </g>
                </g>
            </g>
        </g>
    </g>
</svg>
