<svg xmlns="http://www.w3.org/2000/svg" width="83" height="81" viewBox="0 0 83 81">
    <g fill="none" fill-rule="evenodd" stroke-linecap="round" stroke-linejoin="round">
        <g stroke-width="2">
            <g>
                <g>
                    <g>
                        <g transform="translate(-828 -1883) translate(0 1367) translate(135 457) translate(599) translate(95.037 63)">
                            <path stroke="#08B3E3" d="M59.845 0L57.063 14M20.75 0L23.533 14M59.745 74L57.063 61M20.75 74L23.433 61"/>
                            <path stroke="#0C488E" d="M40.462 4L40.462 7M40.462 14L40.462 17M40.462 24L40.462 27"/>
                            <ellipse cx="40.981" cy="38.5" stroke="#0C488E" rx="1.556" ry="1.5"/>
                            <path stroke="#08B3E3" d="M29.908 11C16.796 14.565 5.977 23.51.326 35.457c-.435.9-.435 1.938 0 2.838C3.014 43.873 14.505 64 40.462 64 66.42 64 77.912 43.87 80.6 38.292c.435-.9.435-1.939 0-2.838C74.95 23.507 64.13 14.564 51.017 11"/>
                            <path stroke="#0C488E" d="M26.803 22c-6.573 5.543-8.836 14.335-5.69 22.102C24.26 51.87 32.163 57 40.981 57c8.818 0 16.722-5.13 19.868-12.898 3.147-7.767.883-16.56-5.69-22.102"/>
                            <path stroke="#0C488E" d="M31.87 34c-1.623 3.588-.53 7.787 2.657 10.195 3.185 2.407 7.648 2.407 10.834 0 3.186-2.408 4.28-6.607 2.657-10.195"/>
                        </g>
                    </g>
                </g>
            </g>
        </g>
    </g>
</svg>
