<svg xmlns="http://www.w3.org/2000/svg" width="83" height="80" viewBox="0 0 83 80">
    <g fill="none" fill-rule="evenodd" stroke-linecap="round" stroke-linejoin="round">
        <g stroke-width="2">
            <g>
                <g>
                    <g>
                        <g>
                            <g>
                                <g>
                                    <path stroke="#0C488E" d="M0 43.696h20.231c.554 0 1.075-.254 1.408-.685l3.258-4.227c.342-.445.885-.7 1.455-.685.571.015 1.099.298 1.416.76l3.976 5.824c.348.507.947.796 1.573.758.625-.038 1.183-.397 1.463-.943l5.419-10.55c.324-.633 1.013-1.006 1.736-.94.722.065 1.33.555 1.529 1.234l4.553 15.514c.198.68.805 1.17 1.528 1.236.722.066 1.412-.306 1.737-.938l2.769-5.392c.297-.58.906-.948 1.573-.949h25.301" transform="translate(-1128 -2284) translate(0 1367) translate(135 457) translate(599) translate(300 400) translate(94 60) translate(1.038 4)"/>
                                    <path stroke="#08B3E3" d="M72.408 37c2.71-5.147 4.201-10.804 4.367-16.567 0-25.866-32.678-27.884-36.831-1.982C35.79-7.45 3.112-5.433 3.112 22.421 3.18 27.433 4.265 32.386 6.308 37M14.525 51c7.025 8.297 15.338 15.608 24.673 21.7.65.423 1.527.396 2.145-.065C49.857 66.23 57.565 58.972 64.325 51" transform="translate(-1128 -2284) translate(0 1367) translate(135 457) translate(599) translate(300 400) translate(94 60) translate(1.038 4)"/>
                                </g>
                            </g>
                        </g>
                    </g>
                </g>
            </g>
        </g>
    </g>
</svg>
