<svg xmlns="http://www.w3.org/2000/svg" width="83" height="80" viewBox="0 0 83 80">
    <g fill="none" fill-rule="evenodd" stroke-linecap="round" stroke-linejoin="round">
        <g stroke-width="2">
            <g>
                <g>
                    <g>
                        <g>
                            <g transform="translate(-1128 -1984) translate(0 1367) translate(135 457) translate(599) translate(300 100) translate(95.037 61)">
                                <ellipse cx="59.656" cy="27.5" stroke="#0C488E" rx="21.269" ry="20.5"/>
                                <path stroke="#08B3E3" d="M69.513 21L59.177 33.994c-.466.583-1.177.947-1.95 1-.773.052-1.532-.214-2.081-.728L49.8 29.233"/>
                                <path stroke="#08B3E3" d="M50.622 1.357C48.733.465 46.662 0 44.562 0c-5.693.002-10.983 2.846-14.007 7.529C27.53 2.846 22.238.002 16.545 0 7.409 0 0 8.77 0 19.893 0 31.93 3.975 39.61 9.057 44.531c-2.669 6.3-4.018 13.054-3.968 19.866-.005 3.702.378 7.393 1.146 11.019.324 1.504 1.69 2.583 3.272 2.584 1.777-.003 3.268-1.3 3.465-3.015 1.397-12.324 8.732-21.704 17.587-21.704 8.854 0 16.203 9.387 17.586 21.704.197 1.714 1.688 3.012 3.465 3.015 1.582-.001 2.947-1.08 3.27-2.584.768-3.625 1.152-7.317 1.145-11.019.001-3.514-.35-7.02-1.048-10.468"/>
                            </g>
                        </g>
                    </g>
                </g>
            </g>
        </g>
    </g>
</svg>
